{
  "accessors": [
    {
      "bufferView": 2,
      "componentType": 5126,
      "count": 48,
      "max": [
        1.0,
        1.0,
        2.11961030960083
      ],
      "min": [
        -1.0,
        -1.0,
        0.11961042881011963
      ],
      "type": "VEC3"
    },
    {
      "bufferView": 2,
      "byteOffset": 576,
      "componentType": 5126,
      "count": 48,
      "max": [
        1.0,
        1.0,
        1.0
      ],
      "min": [
        -1.0,
        -1.0,
        -1.0
      ],
      "type": "VEC3"
    },
    {
      "bufferView": 3,
      "componentType": 5126,
      "count": 48,
      "max": [
        1.0,
        1.0,
        1.0,
        1.0
      ],
      "min": [
        -1.0,
        0.0,
        -1.0,
        -1.0
      ],
      "type": "VEC4"
    },
    {
      "bufferView": 1,
      "componentType": 5126,
      "count": 48,
      "max": [
        0.849797785282135,
        0.9536845088005066
      ],
      "min": [
        0.1580010950565338,
        0.017838697880506516
      ],
      "type": "VEC2"
    },
    {
      "bufferView": 1,
      "byteOffset": 384,
      "componentType": 5126,
      "count": 48,
      "max": [
        0.849797785282135,
        0.9536845088005066
      ],
      "min": [
        0.1580010950565338,
        0.017838697880506516
      ],
      "type": "VEC2"
    },
    {
      "bufferView": 0,
      "componentType": 5125,
      "count": 84,
      "type": "SCALAR"
    },
    {
      "bufferView": 2,
      "byteOffset": 1152,
      "componentType": 5126,
      "count": 48,
      "max": [
        1.0,
        1.0,
        2.11961030960083
      ],
      "min": [
        -1.0,
        -1.0,
        0.11961042881011963
      ],
      "type": "VEC3"
    },
    {
      "bufferView": 2,
      "byteOffset": 1728,
      "componentType": 5126,
      "count": 48,
      "max": [
        1.0,
        1.0,
        1.0
      ],
      "min": [
        -1.0,
        -1.0,
        -1.0
      ],
      "type": "VEC3"
    },
    {
      "bufferView": 1,
      "byteOffset": 768,
      "componentType": 5126,
      "count": 48,
      "max": [
        0.8407087326049805,
        0.946751594543457
      ],
      "min": [
        0.1640923023223877,
        0.026547223329544067
      ],
      "type": "VEC2"
    },
    {
      "bufferView": 1,
      "byteOffset": 1152,
      "componentType": 5126,
      "count": 48,
      "max": [
        0.8407087326049805,
        0.946751594543457
      ],
      "min": [
        0.1640923023223877,
        0.026547223329544067
      ],
      "type": "VEC2"
    },
    {
      "bufferView": 0,
      "byteOffset": 336,
      "componentType": 5125,
      "count": 84,
      "type": "SCALAR"
    },
    {
      "bufferView": 2,
      "byteOffset": 2304,
      "componentType": 5126,
      "count": 48,
      "max": [
        1.0,
        1.0,
        2.11961030960083
      ],
      "min": [
        -1.0,
        -1.0,
        0.11961042881011963
      ],
      "type": "VEC3"
    },
    {
      "bufferView": 2,
      "byteOffset": 2880,
      "componentType": 5126,
      "count": 48,
      "max": [
        1.0,
        1.0,
        1.0
      ],
      "min": [
        -1.0,
        -1.0,
        -1.0
      ],
      "type": "VEC3"
    },
    {
      "bufferView": 1,
      "byteOffset": 1536,
      "componentType": 5126,
      "count": 48,
      "max": [
        0.8395718336105347,
        0.994130551815033
      ],
      "min": [
        0.1644781231880188,
        -0.012904691509902477
      ],
      "type": "VEC2"
    },
    {
      "bufferView": 1,
      "byteOffset": 1920,
      "componentType": 5126,
      "count": 48,
      "max": [
        0.8395718336105347,
        0.994130551815033
      ],
      "min": [
        0.1644781231880188,
        -0.012904691509902477
      ],
      "type": "VEC2"
    },
    {
      "bufferView": 0,
      "byteOffset": 672,
      "componentType": 5125,
      "count": 84,
      "type": "SCALAR"
    }
  ],
  "asset": {
    "extras": {
      "author": "Seniora_Kora (https://sketchfab.com/kora_pomidora)",
      "license": "CC-BY-4.0 (http://creativecommons.org/licenses/by/4.0/)",
      "source": "https://sketchfab.com/3d-models/neon--posters-300c1b73ee5a4375a35cfb682534cba6",
      "title": "Neon_ Posters"
    },
    "generator": "Sketchfab-15.17.0",
    "version": "2.0"
  },
  "bufferViews": [
    {
      "buffer": 0,
      "byteLength": 1008,
      "name": "floatBufferViews",
      "target": 34963
    },
    {
      "buffer": 0,
      "byteLength": 2304,
      "byteOffset": 1008,
      "byteStride": 8,
      "name": "floatBufferViews",
      "target": 34962
    },
    {
      "buffer": 0,
      "byteLength": 3456,
      "byteOffset": 3312,
      "byteStride": 12,
      "name": "floatBufferViews",
      "target": 34962
    },
    {
      "buffer": 0,
      "byteLength": 768,
      "byteOffset": 6768,
      "byteStride": 16,
      "name": "floatBufferViews",
      "target": 34962
    }
  ],
  "buffers": [
    {
      "byteLength": 7536,
      "uri": "scene.bin"
    }
  ],
  "images": [
    {
      "uri": "textures/poster_baseColor.png"
    },
    {
      "uri": "textures/poster_metallicRoughness.png"
    },
    {
      "uri": "textures/poster_normal.png"
    },
    {
      "uri": "textures/poster1_baseColor.png"
    },
    {
      "uri": "textures/poster.2_baseColor.png"
    }
  ],
  "materials": [
    {
      "doubleSided": true,
      "name": "poster",
      "normalTexture": {
        "index": 2
      },
      "pbrMetallicRoughness": {
        "baseColorTexture": {
          "index": 0
        },
        "metallicFactor": 0.0,
        "metallicRoughnessTexture": {
          "index": 1
        }
      }
    },
    {
      "doubleSided": true,
      "name": "poster1",
      "pbrMetallicRoughness": {
        "baseColorTexture": {
          "index": 3
        },
        "metallicFactor": 0.0,
        "roughnessFactor": 0.8211145618000169
      }
    },
    {
      "doubleSided": true,
      "name": "poster.2",
      "pbrMetallicRoughness": {
        "baseColorTexture": {
          "index": 4
        },
        "metallicFactor": 0.0,
        "roughnessFactor": 0.8211145618000169
      }
    }
  ],
  "meshes": [
    {
      "name": "poster_poster_0",
      "primitives": [
        {
          "attributes": {
            "NORMAL": 1,
            "POSITION": 0,
            "TANGENT": 2,
            "TEXCOORD_0": 3,
            "TEXCOORD_1": 4
          },
          "indices": 5,
          "material": 0,
          "mode": 4
        }
      ]
    },
    {
      "name": "poster.001_poster1_0",
      "primitives": [
        {
          "attributes": {
            "NORMAL": 7,
            "POSITION": 6,
            "TEXCOORD_0": 8,
            "TEXCOORD_1": 9
          },
          "indices": 10,
          "material": 1,
          "mode": 4
        }
      ]
    },
    {
      "name": "poster.002_poster.2_0",
      "primitives": [
        {
          "attributes": {
            "NORMAL": 12,
            "POSITION": 11,
            "TEXCOORD_0": 13,
            "TEXCOORD_1": 14
          },
          "indices": 15,
          "material": 2,
          "mode": 4
        }
      ]
    }
  ],
  "nodes": [
    {
      "children": [
        1
      ],
      "matrix": [
        1.0,
        0.0,
        0.0,
        0.0,
        0.0,
        2.220446049250313e-16,
        -1.0,
        0.0,
        0.0,
        1.0,
        2.220446049250313e-16,
        0.0,
        0.0,
        0.0,
        0.0,
        1.0
      ],
      "name": "Sketchfab_model"
    },
    {
      "children": [
        2
      ],
      "matrix": [
        0.009999999776482582,
        0.0,
        0.0,
        0.0,
        0.0,
        0.0,
        0.009999999776482582,
        0.0,
        0.0,
        -0.009999999776482582,
        0.0,
        0.0,
        0.0,
        0.0,
        0.0,
        1.0
      ],
      "name": "Neon_Posteers.fbx"
    },
    {
      "children": [
        3,
        5,
        7
      ],
      "name": "RootNode"
    },
    {
      "children": [
        4
      ],
      "matrix": [
        3.0750491619110107,
        0.0,
        0.0,
        0.0,
        0.0,
        -6.51883646276918e-06,
        -40.01233291625924,
        0.0,
        0.0,
        59.686248779296086,
        -9.724124201472915e-06,
        0.0,
        0.0,
        0.0,
        0.0,
        1.0
      ],
      "name": "poster"
    },
    {
      "mesh": 0,
      "name": "poster_poster_0"
    },
    {
      "children": [
        6
      ],
      "matrix": [
        -3.053143501281703,
        3.739022983415718e-16,
        4.610118427364043e-07,
        0.0,
        5.998655794730469e-06,
        2.999327912575124e-06,
        39.72730255126896,
        0.0,
        -6.683108537459282e-13,
        59.261070251464666,
        -4.474086338536421e-06,
        0.0,
        0.0,
        0.0,
        96.0,
        1.0
      ],
      "name": "poster.001"
    },
    {
      "mesh": 1,
      "name": "poster.001_poster1_0"
    },
    {
      "children": [
        8
      ],
      "matrix": [
        -3.0623126029967906,
        3.750251896185654e-16,
        4.6239633857688334e-07,
        0.0,
        6.016670296747623e-06,
        3.008335163629378e-06,
        39.846607208251385,
        0.0,
        -6.703179027987702e-13,
        59.439041137695135,
        -4.487522766656301e-06,
        0.0,
        0.0,
        0.0,
        -96.39022064208984,
        1.0
      ],
      "name": "poster.002"
    },
    {
      "mesh": 2,
      "name": "poster.002_poster.2_0"
    }
  ],
  "samplers": [
    {
      "magFilter": 9729,
      "minFilter": 9987,
      "wrapS": 10497,
      "wrapT": 10497
    }
  ],
  "scene": 0,
  "scenes": [
    {
      "name": "Sketchfab_Scene",
      "nodes": [
        0
      ]
    }
  ],
  "textures": [
    {
      "sampler": 0,
      "source": 0
    },
    {
      "sampler": 0,
      "source": 1
    },
    {
      "sampler": 0,
      "source": 2
    },
    {
      "sampler": 0,
      "source": 3
    },
    {
      "sampler": 0,
      "source": 4
    }
  ]
}
