{
  "accessors": [
    {
      "bufferView": 2,
      "componentType": 5126,
      "count": 3329,
      "max": [
        0.19037899374961853,
        0.18898500502109528,
        -0.0004900000058114529
      ],
      "min": [
        -0.19037899374961853,
        -0.19177299737930298,
        -0.754173994064331
      ],
      "type": "VEC3"
    },
    {
      "bufferView": 2,
      "byteOffset": 39948,
      "componentType": 5126,
      "count": 3329,
      "max": [
        1.0,
        1.0,
        1.0
      ],
      "min": [
        -1.0,
        -1.0,
        -1.0
      ],
      "type": "VEC3"
    },
    {
      "bufferView": 1,
      "componentType": 5126,
      "count": 3329,
      "max": [
        1.000892996788025,
        1.0
      ],
      "min": [
        -0.0008919999818317592,
        0.0
      ],
      "type": "VEC2"
    },
    {
      "bufferView": 0,
      "componentType": 5125,
      "count": 13620,
      "type": "SCALAR"
    }
  ],
  "asset": {
    "extras": {
      "author": "BlueCrystal500 (https://sketchfab.com/BlueCrystal500)",
      "license": "CC-BY-4.0 (http://creativecommons.org/licenses/by/4.0/)",
      "source": "https://sketchfab.com/3d-models/lamp-skurup-ikea-298a2248f18d460ca5ca5c832364ef18",
      "title": "Lamp SKURUP - Ikea"
    },
    "generator": "Sketchfab-12.66.0",
    "version": "2.0"
  },
  "bufferViews": [
    {
      "buffer": 0,
      "byteLength": 54480,
      "name": "floatBufferViews",
      "target": 34963
    },
    {
      "buffer": 0,
      "byteLength": 26632,
      "byteOffset": 54480,
      "byteStride": 8,
      "name": "floatBufferViews",
      "target": 34962
    },
    {
      "buffer": 0,
      "byteLength": 79896,
      "byteOffset": 81112,
      "byteStride": 12,
      "name": "floatBufferViews",
      "target": 34962
    }
  ],
  "buffers": [
    {
      "byteLength": 161008,
      "uri": "scene.bin"
    }
  ],
  "materials": [
    {
      "doubleSided": true,
      "name": "Material.001",
      "pbrMetallicRoughness": {
        "baseColorFactor": [
          0.002123350025696341,
          0.002085768609312335,
          0.002085768609312335,
          1.0
        ],
        "metallicFactor": 0.0,
        "roughnessFactor": 0.47507921441763823
      }
    }
  ],
  "meshes": [
    {
      "name": "Object_0",
      "primitives": [
        {
          "attributes": {
            "NORMAL": 1,
            "POSITION": 0,
            "TEXCOORD_0": 2
          },
          "indices": 3,
          "material": 0,
          "mode": 4
        }
      ]
    }
  ],
  "nodes": [
    {
      "children": [
        1
      ],
      "matrix": [
        1.0,
        0.0,
        0.0,
        0.0,
        0.0,
        2.220446049250313e-16,
        -1.0,
        0.0,
        0.0,
        1.0,
        2.220446049250313e-16,
        0.0,
        0.0,
        0.0,
        0.0,
        1.0
      ],
      "name": "Sketchfab_model"
    },
    {
      "children": [
        2
      ],
      "name": "af048f7df38e4088a3938f816d51818b.obj.cleaner.materialmerger.gles"
    },
    {
      "mesh": 0,
      "name": "Object_2"
    }
  ],
  "scene": 0,
  "scenes": [
    {
      "name": "Sketchfab_Scene",
      "nodes": [
        0
      ]
    }
  ]
}
